<svg width="21" height="20" viewBox="0 0 21 20" fill="none" xmlns="http://www.w3.org/2000/svg">
<path d="M9.625 5.83329H11.375V7.49996H9.625V5.83329ZM9.625 9.16663H11.375V14.1666H9.625V9.16663ZM10.5 1.66663C5.67 1.66663 1.75 5.39996 1.75 9.99996C1.75 14.6 5.67 18.3333 10.5 18.3333C15.33 18.3333 19.25 14.6 19.25 9.99996C19.25 5.39996 15.33 1.66663 10.5 1.66663ZM10.5 16.6666C6.64125 16.6666 3.5 13.675 3.5 9.99996C3.5 6.32496 6.64125 3.33329 10.5 3.33329C14.3587 3.33329 17.5 6.32496 17.5 9.99996C17.5 13.675 14.3587 16.6666 10.5 16.6666Z" fill="black"/>
</svg>
