<svg width="198" height="116" viewBox="0 0 198 116" fill="none" xmlns="http://www.w3.org/2000/svg">
<ellipse cx="97" cy="76.5" rx="39" ry="39.5" fill="#0FA928"/>
<path d="M79.1772 74.6148C79.0868 74.5148 79.0753 74.3654 79.1494 74.2528C79.2411 74.1135 79.4291 74.08 79.5627 74.1791L93.1922 84.2823L117.786 57.7178C117.979 57.5099 118.315 57.5467 118.46 57.7916C118.551 57.9459 118.538 58.1412 118.427 58.2812L93.1922 90.1094L79.1772 74.6148Z" fill="white"/>
<path d="M162 69.2353L163.036 69.0736C167.26 68.4148 171.496 70.182 174 73.6471L171.6 77C168.945 74.7029 165.705 73.1224 162.256 72.4609L162 72.4118V69.2353Z" fill="#0D8F22" fill-opacity="0.62"/>
<path d="M11.8947 77.6842L10.8527 77.5635C6.60617 77.0718 2.99483 74.2387 1.50631 70.2314L4.71374 67.6401C6.66021 70.5623 9.36116 72.9498 12.508 74.5071L12.742 74.6228L11.8947 77.6842Z" fill="#0D8F22" fill-opacity="0.45"/>
<path d="M60.9092 11.1453L61.9308 11.3838C66.0938 12.3555 69.3593 15.581 70.3822 19.7317L66.9008 21.9412C65.2994 18.8166 62.8877 16.1373 59.9384 14.2321L59.7191 14.0904L60.9092 11.1453Z" fill="#0D8F22" fill-opacity="0.62"/>
<path d="M154.055 6.83454L153.279 7.541C150.119 10.42 145.611 11.2821 141.611 9.77233L141.764 5.65179C145.246 6.1035 148.821 5.63513 152.062 4.28517L152.303 4.1848L154.055 6.83454Z" fill="#0D8F22" fill-opacity="0.36"/>
<path d="M190.93 40.8264L189.958 40.4326C185.996 38.8281 183.269 35.1358 182.901 30.8768L186.683 29.233C187.781 32.5679 189.749 35.5883 192.368 37.9272L192.562 38.1011L190.93 40.8264Z" fill="#878E88" fill-opacity="0.36"/>
</svg>
