<svg version="1.2" xmlns="http://www.w3.org/2000/svg" viewBox="0 0 1560 336" width="1560" height="336">
	<title>yadea-logo-scaled-svg</title>
	<style>
		.s0 { fill: #ef7100 } 
		.s1 { fill: #080909 } 
	</style>
	<g id="#ef7100ff">
		<path id="Layer" class="s0" d="m143.2 1.3c5.5-0.7 11-0.2 16.5-0.6 5.2-0.8 10.5-0.1 15.8-0.2 3.4 0 6.9-0.4 10.4 0 6.2 0.7 12.6 0.1 18.9 0.8 32.9 1.7 66.1 6.6 97 18.9 10 4.3 19.9 9.1 28.5 15.8-3.8 4.5-8.9 7.4-13.7 10.7-7.6 4.8-15.1 9.6-23 14-13.7 7.8-27.4 15.6-42 21.4-23.9 10.1-49.3 18.2-75.5 18.4-1.6 0.2-3.2 0.4-4.9 0.1-4.4-0.5-8.9 0-13.3-0.7-19.7-2.4-38.9-8.2-57.1-15.9-16-6.5-31.2-14.9-46.2-23.3-6.6-3.5-12.9-7.3-19.3-11.1-5.9-3.6-12-7.1-17.3-11.7 7.6-5.8 16.1-10.3 24.7-14.5 31.4-14.5 66.2-20.1 100.5-22.1zm198.8 67.2c2.2-0.9 4.4-1.9 6.9-2 0.8 5.3 0.5 10.6 0.5 15.8-0.5 16.4-3.7 32.5-8.3 48.2-7.5 24.7-18 48.4-30.2 71.1-12.3 23-26 45.2-41.8 66-12.5 16.2-26.3 31.8-42.3 44.8-10 8.3-20.9 15.3-32.5 21.2-1.3 0.6-2.7 1.1-4.1 1.7-0.6-1.8-1-3.5-1-5.4-1.1-15-0.6-30.1-0.5-45.1 0.6-10.8 0.4-21.6 1.7-32.4 2.7-27.1 8.1-54.6 21.4-78.8 3.8-7.6 8.8-14.6 14-21.4 6.8-8.8 14.8-16.5 22.9-24.1 10-8.7 20.4-17 31.3-24.6 10-6.7 20.3-12.7 30.7-18.7 10.2-5.8 20.5-11.5 31.3-16.3zm-342 3.9c0.1-2 0.4-3.9 0.9-5.8 9 2.5 17.1 7.4 25.3 11.5 14.7 8.1 29.3 16.4 43.3 25.6 20.2 14.4 39.7 30.3 55.1 50 11.4 14.6 19.9 31.4 25.2 49.1 3 10.1 5.3 20.3 6.9 30.7 1.8 11.5 3.1 23.1 3.5 34.8 0.5 6.3 0.2 12.6 0.8 18.9 0.1 11 0.2 22 0 33-0.6 5.1 0 10.4-1.6 15.4-10.1-4.1-19.3-10-28.1-16.3-15.6-11.4-29.5-25.1-41.7-40-19.6-23.4-35.7-49.5-50.3-76.1-14.6-27.4-27.4-56.1-34.5-86.4-2.7-12-4.7-24.3-4.8-36.7z"/>
	</g>
	<g id="#080909ff">
		<path id="Layer" fill-rule="evenodd" class="s1" d="m428 66.6c21.8-0.1 43.6-0.1 65.3 0 10.1 22 20.4 44 30.5 66 5.6 11.9 11 23.9 16.6 35.8 10.6-23.2 21.4-46.3 32-69.4 5.1-10.8 9.9-21.7 15-32.5 21.3 0.1 42.6 0 63.9 0.1-26.1 50-52.3 99.9-78.4 149.8q-0.4 0.9-0.4 1.9c0 24.5 0.1 48.9-0.1 73.3q-12.9 0-25.8 0c-12.8-0.5-25.7-0.1-38.5-0.3-0.1-24.7 0-49.5 0-74.2 0-1-0.4-1.9-0.8-2.7-26.4-49.3-52.9-98.5-79.3-147.8zm305.4 0.1c20.5-0.1 41 0 61.4 0 22.8 64.5 45.5 128.9 68.3 193.4 3.6 10.4 7.5 20.7 10.9 31.2-20.1 0-40.1 0-60.2 0-2.6-7.8-5.3-15.5-7.9-23.3-1-2.9-1.9-5.8-3.1-8.6-25.8 0-51.5 0.1-77.3 0-4.4 10.5-8.2 21.2-12.4 31.8-20.3 0.1-40.7 0.1-61 0.1 27.1-74.9 54.1-149.8 81.3-224.6zm15.8 111.7c-3.1 11.6-6.5 23.1-9.4 34.7 16.1 0.1 32.3 0.2 48.4 0-6.8-23.8-13.3-47.7-20.1-71.4-1.6-5.2-2.7-10.6-4.5-15.7-4.9 17.4-9.6 34.9-14.4 52.4zm155.9-111.8c18.6-0.1 37.3 0 55.9-0.1 14 0 28 0.2 42 1 14.3 0.8 28.7 2.4 42.6 6.3 11.2 3.3 22 8.4 30.4 16.6 7.6 7.3 12.8 16.7 16.2 26.5 4.8 13.8 6.4 28.4 7.4 42.8 0 9 1 17.9 0.2 26.9-0.1 12.9-1.2 25.8-3.3 38.5-2.1 11.4-5.2 22.9-11 33.1-5.8 10.4-14.9 19.1-25.8 24-11.3 5.3-23.7 7.2-36 8.4-9.7 0.8-19.4 0.7-29.2 0.8-29.8 0-59.6 0-89.4-0.1-0.1-74.9 0-149.8 0-224.7zm61 55.4c0 36.5 0 73.1 0 109.7 0.2 4.8-0.2 9.6 0.2 14.3 14.4-0.1 28.8 0.1 43.1-2 6-1.1 12.2-2.7 17.3-6.2 4.4-3 7.5-7.6 9.3-12.5 3-7.9 3.5-16.4 4.1-24.7q0.9-21.6 0-43.2c-0.6-8.4-1.2-17-4.5-24.8-1.9-4.4-5.1-8.3-9.2-10.9-5.1-3.2-11.1-4.6-17-5.5-6.6-0.9-13.2-1.5-19.8-1.4-7.8-0.7-15.6-0.3-23.4-0.4-0.2 2.5-0.1 5-0.1 7.6zm184.4-55.4c51.1 0 102.3-0.1 153.4 0q0.1 23.9 0 47.8c-31.7 0.1-63.5-0.1-95.3 0.2q0 21.3 0.1 42.5c28 0.1 56 0 84 0.1 0 15.6 0.1 31.3-0.1 46.9-27.9 0.1-55.9-0.2-83.9 0.1q0 15.9 0 31.8c0 3.3-0.3 6.7 0.1 10 32.7 0 65.3 0 98 0 0 13.6 0 27.1 0 40.6 0 1.7 0 3.4-0.2 5-52 0-104 0-156 0-0.2-31.1 0-62.3-0.1-93.4 0-43.9 0.1-87.8 0-131.6zm268.6 0.1c20.4 0 40.9-0.1 61.3 0 25.7 72.5 51.2 145.1 76.9 217.6 0.8 2.3 1.8 4.6 2.2 7-20 0-40 0-60-0.1-3.5-10.5-7.4-21-10.7-31.6-25.9-0.3-51.9 0-77.8-0.2-4.2 10.6-8.1 21.3-12.3 31.9-20.3 0-40.7 0.1-61-0.1 27.2-74.8 54.1-149.7 81.4-224.5zm6.2 146.4q24.3 0.2 48.6 0c-8.4-29-16.2-58.1-24.7-87.1-8 29-16.1 58-23.9 87.1z"/>
	</g>
</svg>